<svg width="20" height="20" viewBox="0 0 20 20" fill="none" xmlns="http://www.w3.org/2000/svg">
<path d="M6.43334 13.7133L7.90084 13.29L16.7367 4.34835C16.8064 4.27693 16.8452 4.18096 16.8447 4.08117C16.8442 3.98138 16.8045 3.88578 16.7342 3.81501L16.205 3.28001C16.1708 3.24488 16.13 3.21691 16.0848 3.19773C16.0397 3.17855 15.9912 3.16856 15.9422 3.16832C15.8932 3.16809 15.8446 3.17763 15.7993 3.19637C15.754 3.21512 15.7129 3.2427 15.6783 3.27751L6.86584 12.1958L6.43334 13.7133ZM17.2525 2.22001L17.7817 2.75585C18.5117 3.49501 18.5183 4.68751 17.795 5.41918L8.69001 14.6342L5.55334 15.5375C5.36184 15.5911 5.15689 15.5666 4.98347 15.4692C4.81006 15.3719 4.68234 15.2097 4.62834 15.0183C4.58816 14.8807 4.58758 14.7346 4.62667 14.5967L5.53917 11.3967L14.62 2.20585C14.7927 2.03198 14.9982 1.89423 15.2247 1.80064C15.4512 1.70705 15.694 1.65949 15.9391 1.66073C16.1841 1.66197 16.4264 1.71199 16.6519 1.80787C16.8774 1.90375 17.0816 2.04441 17.2525 2.22001ZM7.65334 3.18085C8.06667 3.18085 8.40167 3.52001 8.40167 3.93835C8.40233 4.03724 8.38349 4.13529 8.34623 4.22689C8.30897 4.3185 8.25402 4.40186 8.18452 4.47221C8.11502 4.54256 8.03233 4.59852 7.94119 4.6369C7.85004 4.67527 7.75223 4.6953 7.65334 4.69585H4.66001C3.83334 4.69585 3.16334 5.37418 3.16334 6.21001V15.2983C3.16334 16.135 3.83334 16.8133 4.66001 16.8133H13.64C14.4667 16.8133 15.1375 16.135 15.1375 15.2983V12.2692C15.1375 11.8508 15.4725 11.5117 15.8858 11.5117C16.2992 11.5117 16.6342 11.8508 16.6342 12.27V15.2983C16.6342 16.9717 15.2933 18.3283 13.64 18.3283H4.66001C3.00667 18.3283 1.66667 16.9717 1.66667 15.2983V6.21001C1.66667 4.53751 3.00667 3.18085 4.66001 3.18085H7.65334Z" fill="#5F2CF1"/>
</svg>
