<svg width="24" height="24" viewBox="0 0 24 24" fill="none" xmlns="http://www.w3.org/2000/svg">
<path d="M10.1716 3.46627C10.5483 3.16446 11.0167 3 11.4994 3C11.9821 3 12.4505 3.16446 12.8272 3.46627L19.2022 8.56627C19.7061 8.96941 20 9.5802 20 10.2262V18.7493C20 19.3129 19.7761 19.8534 19.3776 20.2519C18.9791 20.6504 18.4386 20.8743 17.875 20.8743H13.625C13.3835 20.8743 13.1518 20.7783 12.981 20.6075C12.8102 20.4367 12.7143 20.2051 12.7143 19.9636V13.5886H10.2857V19.9636C10.2857 20.2051 10.1898 20.4367 10.019 20.6075C9.84818 20.7783 9.61654 20.8743 9.375 20.8743H5.125C4.56141 20.8743 4.02091 20.6504 3.6224 20.2519C3.22388 19.8534 3 19.3129 3 18.7493V10.225C3 9.5802 3.29386 8.96941 3.79779 8.56627L10.1716 3.46627ZM11.6894 4.8882C11.6356 4.84524 11.5688 4.82185 11.5 4.82185C11.4312 4.82185 11.3644 4.84524 11.3106 4.8882L4.93557 9.9882C4.89986 10.0167 4.87104 10.0529 4.85128 10.0941C4.83151 10.1354 4.82131 10.1805 4.82143 10.2262V18.7493C4.82143 18.9168 4.95743 19.0528 5.125 19.0528H8.46429V12.6778C8.46429 12.4363 8.56024 12.2047 8.73103 12.0339C8.90182 11.8631 9.13346 11.7671 9.375 11.7671H13.625C13.8665 11.7671 14.0982 11.8631 14.269 12.0339C14.4398 12.2047 14.5357 12.4363 14.5357 12.6778V19.0528H17.875C17.9555 19.0528 18.0327 19.0209 18.0897 18.9639C18.1466 18.907 18.1786 18.8298 18.1786 18.7493V10.225C18.1785 10.1795 18.1682 10.1346 18.1485 10.0936C18.1287 10.0526 18.1 10.0166 18.0644 9.9882L11.6894 4.8882Z" fill="#5F2CF1"/>
</svg>
