<svg width="24" height="24" viewBox="0 0 24 24" fill="none" xmlns="http://www.w3.org/2000/svg">
<path d="M20.8817 18.8366C19.7391 16.8312 17.9549 15.2687 15.8164 14.4005C16.8799 13.6029 17.6654 12.491 18.0618 11.2221C18.4581 9.95326 18.4452 8.59186 18.0248 7.33076C17.6045 6.06966 16.798 4.97279 15.7196 4.19552C14.6412 3.41826 13.3456 3 12.0162 3C10.6869 3 9.3913 3.41826 8.3129 4.19552C7.23451 4.97279 6.428 6.06966 6.00764 7.33076C5.58727 8.59186 5.57435 9.95326 5.97071 11.2221C6.36707 12.491 7.15261 13.6029 8.21607 14.4005C6.07757 15.2687 4.29342 16.8312 3.15083 18.8366C3.08003 18.9504 3.03285 19.0773 3.01208 19.2098C2.99131 19.3422 2.99738 19.4775 3.02993 19.6075C3.06248 19.7376 3.12084 19.8597 3.20156 19.9668C3.28227 20.0738 3.38368 20.1635 3.49976 20.2306C3.61584 20.2977 3.74422 20.3407 3.87726 20.3572C4.01031 20.3736 4.14531 20.3632 4.27423 20.3264C4.40316 20.2897 4.52337 20.2274 4.62774 20.1432C4.7321 20.0591 4.81848 19.9548 4.88174 19.8366C6.39181 17.2265 9.0586 15.6698 12.0162 15.6698C14.9739 15.6698 17.6407 17.2273 19.1507 19.8366C19.2878 20.0571 19.5053 20.2156 19.7571 20.2786C20.009 20.3416 20.2755 20.3043 20.5002 20.1744C20.725 20.0445 20.8905 19.8323 20.9617 19.5827C21.0329 19.333 21.0042 19.0654 20.8817 18.8366ZM7.68271 9.33613C7.68271 8.47903 7.93686 7.64119 8.41304 6.92854C8.88921 6.2159 9.56602 5.66046 10.3579 5.33246C11.1497 5.00447 12.021 4.91865 12.8617 5.08586C13.7023 5.25307 14.4745 5.6658 15.0805 6.27185C15.6866 6.87791 16.0993 7.65007 16.2665 8.4907C16.4337 9.33132 16.3479 10.2026 16.0199 10.9945C15.6919 11.7863 15.1365 12.4632 14.4238 12.9393C13.7112 13.4155 12.8733 13.6697 12.0162 13.6697C10.8673 13.6683 9.76584 13.2113 8.95343 12.3989C8.14102 11.5865 7.68403 10.485 7.68271 9.33613Z" fill="#AAAAAA"/>
</svg>
