<svg width="24" height="24" viewBox="0 0 24 24" fill="none" xmlns="http://www.w3.org/2000/svg">
<path fill-rule="evenodd" clip-rule="evenodd" d="M12.3763 13.7657L18.0333 19.4227C18.222 19.6048 18.4746 19.7056 18.7368 19.7034C18.9989 19.7011 19.2498 19.5959 19.4352 19.4105C19.6206 19.2251 19.7257 18.9743 19.728 18.7121C19.7303 18.4499 19.6295 18.1973 19.4473 18.0087L13.7903 12.3517L19.4473 6.69468C19.6295 6.50608 19.7303 6.25348 19.728 5.99128C19.7257 5.72908 19.6206 5.47827 19.4352 5.29286C19.2498 5.10745 18.9989 5.00229 18.7368 5.00001C18.4746 4.99773 18.222 5.09852 18.0333 5.28068L12.3763 10.9377L6.71935 5.28068C6.5299 5.10303 6.27876 5.00605 6.01908 5.01026C5.7594 5.01448 5.51154 5.11956 5.32796 5.30328C5.14438 5.48699 5.03947 5.73492 5.03544 5.9946C5.0314 6.25429 5.12856 6.50536 5.30635 6.69468L10.9623 12.3517L5.30535 18.0087C5.20984 18.1009 5.13366 18.2113 5.08125 18.3333C5.02884 18.4553 5.00125 18.5865 5.0001 18.7193C4.99894 18.8521 5.02425 18.9837 5.07453 19.1066C5.12481 19.2295 5.19906 19.3412 5.29295 19.4351C5.38685 19.529 5.4985 19.6032 5.6214 19.6535C5.74429 19.7038 5.87597 19.7291 6.00875 19.7279C6.14153 19.7268 6.27275 19.6992 6.39475 19.6468C6.51676 19.5944 6.6271 19.5182 6.71935 19.4227L12.3763 13.7657Z" fill="#222222"/>
</svg>
